<mxfile host="app.diagrams.net" agent="Mozilla/5.0 (Windows NT 10.0; Win64; x64) AppleWebKit/537.36 (KHTML, like Gecko) Chrome/141.0.0.0 Safari/537.36" version="28.2.7">
  <diagram name="Página-1" id="aCwcsSelID0ZDBwMDWJJ">
    <mxGraphModel dx="1281" dy="561" grid="1" gridSize="10" guides="1" tooltips="1" connect="1" arrows="1" fold="1" page="1" pageScale="1" pageWidth="827" pageHeight="1169" math="0" shadow="0">
      <root>
        <mxCell id="0" />
        <mxCell id="1" parent="0" />
        <mxCell id="IoIozuvIYSwnegEp2T-9-3" value="" style="edgeStyle=orthogonalEdgeStyle;rounded=0;orthogonalLoop=1;jettySize=auto;html=1;" edge="1" parent="1" source="IoIozuvIYSwnegEp2T-9-1" target="IoIozuvIYSwnegEp2T-9-2">
          <mxGeometry relative="1" as="geometry" />
        </mxCell>
        <mxCell id="IoIozuvIYSwnegEp2T-9-1" value="inicio" style="strokeWidth=2;html=1;shape=mxgraph.flowchart.terminator;whiteSpace=wrap;" vertex="1" parent="1">
          <mxGeometry x="280" y="20" width="100" height="60" as="geometry" />
        </mxCell>
        <mxCell id="IoIozuvIYSwnegEp2T-9-5" value="" style="edgeStyle=orthogonalEdgeStyle;rounded=0;orthogonalLoop=1;jettySize=auto;html=1;" edge="1" parent="1" source="IoIozuvIYSwnegEp2T-9-2" target="IoIozuvIYSwnegEp2T-9-4">
          <mxGeometry relative="1" as="geometry" />
        </mxCell>
        <mxCell id="IoIozuvIYSwnegEp2T-9-2" value="real base, altura, area" style="rounded=1;whiteSpace=wrap;html=1;absoluteArcSize=1;arcSize=14;strokeWidth=2;" vertex="1" parent="1">
          <mxGeometry x="250" y="120" width="160" height="60" as="geometry" />
        </mxCell>
        <mxCell id="IoIozuvIYSwnegEp2T-9-4" value="&quot;Digite a base do retângulo: &quot;" style="strokeWidth=2;html=1;shape=mxgraph.flowchart.display;whiteSpace=wrap;" vertex="1" parent="1">
          <mxGeometry x="250" y="210" width="160" height="80" as="geometry" />
        </mxCell>
        <mxCell id="IoIozuvIYSwnegEp2T-9-11" value="" style="edgeStyle=orthogonalEdgeStyle;rounded=0;orthogonalLoop=1;jettySize=auto;html=1;" edge="1" parent="1" source="IoIozuvIYSwnegEp2T-9-6" target="IoIozuvIYSwnegEp2T-9-9">
          <mxGeometry relative="1" as="geometry" />
        </mxCell>
        <mxCell id="IoIozuvIYSwnegEp2T-9-6" value="base" style="html=1;strokeWidth=2;shape=manualInput;whiteSpace=wrap;rounded=1;size=26;arcSize=11;" vertex="1" parent="1">
          <mxGeometry x="269" y="320" width="130" height="60" as="geometry" />
        </mxCell>
        <mxCell id="IoIozuvIYSwnegEp2T-9-8" style="edgeStyle=orthogonalEdgeStyle;rounded=0;orthogonalLoop=1;jettySize=auto;html=1;entryX=0.474;entryY=0.188;entryDx=0;entryDy=0;entryPerimeter=0;" edge="1" parent="1" source="IoIozuvIYSwnegEp2T-9-4" target="IoIozuvIYSwnegEp2T-9-6">
          <mxGeometry relative="1" as="geometry" />
        </mxCell>
        <mxCell id="IoIozuvIYSwnegEp2T-9-9" value="&quot;Digite a altura do retângulo: &quot;" style="strokeWidth=2;html=1;shape=mxgraph.flowchart.display;whiteSpace=wrap;" vertex="1" parent="1">
          <mxGeometry x="259" y="410" width="151" height="70" as="geometry" />
        </mxCell>
        <mxCell id="IoIozuvIYSwnegEp2T-9-15" value="" style="edgeStyle=orthogonalEdgeStyle;rounded=0;orthogonalLoop=1;jettySize=auto;html=1;" edge="1" parent="1" source="IoIozuvIYSwnegEp2T-9-12" target="IoIozuvIYSwnegEp2T-9-14">
          <mxGeometry relative="1" as="geometry" />
        </mxCell>
        <mxCell id="IoIozuvIYSwnegEp2T-9-12" value="altura" style="html=1;strokeWidth=2;shape=manualInput;whiteSpace=wrap;rounded=1;size=26;arcSize=11;" vertex="1" parent="1">
          <mxGeometry x="270.5" y="515" width="130" height="70" as="geometry" />
        </mxCell>
        <mxCell id="IoIozuvIYSwnegEp2T-9-13" style="edgeStyle=orthogonalEdgeStyle;rounded=0;orthogonalLoop=1;jettySize=auto;html=1;entryX=0.487;entryY=0.173;entryDx=0;entryDy=0;entryPerimeter=0;" edge="1" parent="1" source="IoIozuvIYSwnegEp2T-9-9" target="IoIozuvIYSwnegEp2T-9-12">
          <mxGeometry relative="1" as="geometry" />
        </mxCell>
        <mxCell id="IoIozuvIYSwnegEp2T-9-17" value="" style="edgeStyle=orthogonalEdgeStyle;rounded=0;orthogonalLoop=1;jettySize=auto;html=1;" edge="1" parent="1" source="IoIozuvIYSwnegEp2T-9-14" target="IoIozuvIYSwnegEp2T-9-16">
          <mxGeometry relative="1" as="geometry" />
        </mxCell>
        <mxCell id="IoIozuvIYSwnegEp2T-9-14" value="area = base * altura" style="rounded=1;whiteSpace=wrap;html=1;absoluteArcSize=1;arcSize=14;strokeWidth=2;" vertex="1" parent="1">
          <mxGeometry x="265" y="620" width="141" height="50" as="geometry" />
        </mxCell>
        <mxCell id="IoIozuvIYSwnegEp2T-9-19" value="" style="edgeStyle=orthogonalEdgeStyle;rounded=0;orthogonalLoop=1;jettySize=auto;html=1;" edge="1" parent="1" source="IoIozuvIYSwnegEp2T-9-16" target="IoIozuvIYSwnegEp2T-9-18">
          <mxGeometry relative="1" as="geometry" />
        </mxCell>
        <mxCell id="IoIozuvIYSwnegEp2T-9-16" value="&quot;A área do retângulo é &quot;, area" style="strokeWidth=2;html=1;shape=mxgraph.flowchart.display;whiteSpace=wrap;" vertex="1" parent="1">
          <mxGeometry x="258" y="702" width="155" height="70" as="geometry" />
        </mxCell>
        <mxCell id="IoIozuvIYSwnegEp2T-9-18" value="fim" style="strokeWidth=2;html=1;shape=mxgraph.flowchart.terminator;whiteSpace=wrap;" vertex="1" parent="1">
          <mxGeometry x="286" y="800" width="100" height="50" as="geometry" />
        </mxCell>
      </root>
    </mxGraphModel>
  </diagram>
</mxfile>
